<svg width="24" height="24" viewBox="0 0 24 24" fill="none" xmlns="http://www.w3.org/2000/svg">
<path d="M4 20H3C3 20.5523 3.44772 21 4 21V20ZM20 21C20.5523 21 21 20.5523 21 20C21 19.4477 20.5523 19 20 19V21ZM4 16L3.29289 15.2929C3.10536 15.4804 3 15.7348 3 16H4ZM14.8686 5.13135L14.1615 4.42424L14.1615 4.42424L14.8686 5.13135ZM17.1313 5.13135L16.4242 5.83846V5.83846L17.1313 5.13135ZM18.8686 6.86861L19.5757 6.1615V6.1615L18.8686 6.86861ZM18.8686 9.13135L18.1615 8.42424V8.42424L18.8686 9.13135ZM8 20L8.00001 21C8.26522 21 8.51957 20.8946 8.70711 20.7071L8 20ZM19.5369 7.69101L20.4879 7.38199L19.5369 7.69101ZM19.5369 8.30896L18.5858 7.99994L19.5369 8.30896ZM15.691 4.46314L15.382 3.51208V3.51208L15.691 4.46314ZM16.3091 4.46314L16.6181 3.51208V3.51208L16.3091 4.46314ZM12.7071 7.29289C12.3166 6.90237 11.6834 6.90237 11.2929 7.29289C10.9024 7.68342 10.9024 8.31658 11.2929 8.70711L12.7071 7.29289ZM15.2929 12.7071C15.6834 13.0976 16.3166 13.0976 16.7071 12.7071C17.0976 12.3166 17.0976 11.6834 16.7071 11.2929L15.2929 12.7071ZM4 21H20V19H4V21ZM5 20V16H3V20H5ZM4.70711 16.7071L15.5757 5.83845L14.1615 4.42424L3.29289 15.2929L4.70711 16.7071ZM16.4242 5.83846L18.1615 7.57571L19.5757 6.1615L17.8385 4.42424L16.4242 5.83846ZM18.1615 8.42424L7.29289 19.2929L8.70711 20.7071L19.5757 9.83846L18.1615 8.42424ZM7.99999 19L3.99999 19L4.00001 21L8.00001 21L7.99999 19ZM18.1615 7.57571C18.3712 7.78539 18.4854 7.90068 18.5611 7.98987C18.6292 8.07015 18.6058 8.06143 18.5858 8.00002L20.4879 7.38199C20.3938 7.09225 20.2342 6.87034 20.0858 6.69551C19.9449 6.52958 19.7621 6.34784 19.5757 6.1615L18.1615 7.57571ZM19.5757 9.83846C19.7621 9.65211 19.9449 9.47037 20.0858 9.30444C20.2342 9.1296 20.3938 8.9077 20.4879 8.61798L18.5858 7.99994C18.6058 7.93855 18.6292 7.92984 18.5611 8.0101C18.4854 8.09928 18.3712 8.21457 18.1615 8.42424L19.5757 9.83846ZM18.5858 8.00002L18.5858 7.99994L20.4879 8.61798C20.6184 8.21629 20.6184 7.78367 20.4879 7.38199L18.5858 8.00002ZM15.5757 5.83846C15.7854 5.62879 15.9007 5.51461 15.9899 5.43891C16.0701 5.37079 16.0614 5.39425 16 5.41419L15.382 3.51208C15.0923 3.60621 14.8704 3.76577 14.6955 3.9142C14.5296 4.05506 14.3479 4.23789 14.1615 4.42424L15.5757 5.83846ZM17.8385 4.42424C17.6522 4.23795 17.4704 4.05511 17.3046 3.91427C17.1298 3.76584 16.9079 3.60623 16.6181 3.51208L16.0001 5.41419C15.9386 5.39423 15.9299 5.37072 16.0101 5.43884C16.0993 5.51456 16.2145 5.62874 16.4242 5.83846L17.8385 4.42424ZM16 5.41419H16.0001L16.6181 3.51208C16.2164 3.38156 15.7837 3.38156 15.382 3.51208L16 5.41419ZM11.2929 8.70711L15.2929 12.7071L16.7071 11.2929L12.7071 7.29289L11.2929 8.70711Z" fill="currentColor"/>
</svg>
