<?xml version="1.0" encoding="utf-8"?>
<!-- Generator: Adobe Illustrator 24.2.0, SVG Export Plug-In . SVG Version: 6.00 Build 0)  -->
<svg version="1.1" id="Layer_1" xmlns="http://www.w3.org/2000/svg" width="32" height="32" xmlns:xlink="http://www.w3.org/1999/xlink" x="20px" y="15px"
	 viewBox="0 0 61 61" style="enable-background:new 0 0 61 61;" xml:space="preserve">
<style type="text/css">
	.st0{fill-rule:evenodd;clip-rule:evenodd;fill:#A50064;}
	.st1{fill:#FFFFFF;}
	.st2{fill:none;}
	.st3{fill:#A50064;}
</style>
<circle class="st0" cx="-544" cy="30.5" r="168"/>
<g>
	<path class="st1" d="M-487.2,21.5c23.5,0,42.5-19,42.5-42.5s-19-42.5-42.5-42.5s-42.5,19-42.5,42.5S-510.7,21.5-487.2,21.5z
		 M-487.2-39.1c10,0,18.1,8.1,18.1,18.1s-8.1,18.1-18.1,18.1S-505.3-11-505.3-21S-497.2-39.1-487.2-39.1z"/>
	<path class="st1" d="M-573.8-63.5c-7.2,0-13.8,2.4-19.1,6.4c-5.3-4-12-6.4-19.1-6.4c-17.7,0-32,14.3-32,31.9v53.1h24.4v-53.4
		c0-4,3.2-7.2,7.2-7.2s7.2,3.2,7.2,7.2v53.4h24.4v-53.4c0-4,3.2-7.2,7.2-7.2s7.2,3.2,7.2,7.2v53.4h24.4v-53.1
		C-542-49.2-556.2-63.5-573.8-63.5z"/>
	<path class="st1" d="M-487.2,39.9c-23.5,0-42.5,19-42.5,42.5s19,42.5,42.5,42.5s42.5-19,42.5-42.5S-463.7,39.9-487.2,39.9z
		 M-487.2,100.5c-10,0-18.1-8.1-18.1-18.1s8.1-18.1,18.1-18.1s18.1,8.1,18.1,18.1C-469.1,92.4-477.2,100.5-487.2,100.5z"/>
	<path class="st1" d="M-573.8,39.9c-7.2,0-13.8,2.4-19.1,6.4c-5.3-4-12-6.4-19.1-6.4c-17.6,0-31.9,14.3-31.9,31.9V125h24.4V71.5
		c0-4,3.2-7.2,7.2-7.2s7.2,3.2,7.2,7.2v53.4h24.4V71.5c0-4,3.2-7.2,7.2-7.2s7.2,3.2,7.2,7.2v53.4h24.3V71.7
		C-542,54.2-556.2,39.9-573.8,39.9z"/>
</g>
<g>
	<path class="st0" d="M-79.5-117.5h-256c-11,0-20,9-20,20v256c0,11,9,20,20,20h256c11,0,20-9,20-20v-256
		C-59.5-108.5-68.5-117.5-79.5-117.5z"/>
	<g>
		<path class="st1" d="M-150.7,21.5c23.5,0,42.5-19,42.5-42.5s-19-42.5-42.5-42.5s-42.5,19-42.5,42.5S-174.2,21.5-150.7,21.5z
			 M-150.7-39.1c10,0,18.1,8.1,18.1,18.1s-8.1,18.1-18.1,18.1S-168.8-11-168.8-21S-160.7-39.1-150.7-39.1z"/>
		<path class="st1" d="M-150.7,39.9c-23.5,0-42.5,19-42.5,42.5s19,42.5,42.5,42.5s42.5-19,42.5-42.5S-127.2,39.9-150.7,39.9z
			 M-150.7,100.5c-10,0-18.1-8.1-18.1-18.1s8.1-18.1,18.1-18.1s18.1,8.1,18.1,18.1C-132.6,92.4-140.7,100.5-150.7,100.5z"/>
		<path class="st1" d="M-237.3,39.9c-7.2,0-13.8,2.4-19.1,6.4c-5.3-4-12-6.4-19.1-6.4c-17.6,0-31.9,14.3-31.9,31.9V125h24.4V71.5
			c0-4,3.2-7.2,7.2-7.2s7.2,3.2,7.2,7.2v53.4h24.4V71.5c0-4,3.2-7.2,7.2-7.2s7.2,3.2,7.2,7.2v53.4h24.3V71.7
			C-205.5,54.2-219.7,39.9-237.3,39.9z"/>
		<path class="st1" d="M-237.3-63.5c-7.2,0-13.8,2.4-19.1,6.4c-5.3-4-12-6.4-19.1-6.4c-17.7,0-32,14.3-32,31.9v53.1h24.4v-53.4
			c0-4,3.2-7.2,7.2-7.2s7.2,3.2,7.2,7.2v53.4h24.4v-53.4c0-4,3.2-7.2,7.2-7.2s7.2,3.2,7.2,7.2v53.4h24.4v-53.1
			C-205.5-49.2-219.7-63.5-237.3-63.5z"/>
	</g>
</g>
<g id="_x35_.-Kiểm-tra-giao-dịch">
	<g id="momo_icon_square_pinkbg">
		<path id="Path" class="st2" d="M56.4,0.5H4.6c-1.5,0-2.8,0-4.1,0v55.9c0,1.5,0,2.8,0,4.1h60c0-1.2,0-2.6,0-4.1V0.5
			C59.3,0.5,57.9,0.5,56.4,0.5z"/>
		<g id="Group" transform="translate(4.000000, 5.500000)">
			<path id="Shape" class="st3" d="M41.4,22.6c6.1,0,11.1-4.9,11.1-11s-5-11-11.1-11s-11.1,4.9-11.1,11S35.3,22.6,41.4,22.6z
				 M41.4,6.8c2.6,0,4.7,2.1,4.7,4.7s-2.1,4.7-4.7,4.7c-2.6,0-4.7-2.1-4.7-4.7S38.8,6.8,41.4,6.8z"/>
			<path id="Shape_1_" class="st3" d="M41.4,27.4c-6.1,0-11.1,4.9-11.1,11s5,11,11.1,11s11.1-4.9,11.1-11S47.5,27.4,41.4,27.4z
				 M41.4,43.1c-2.6,0-4.7-2.1-4.7-4.7c0-2.6,2.1-4.7,4.7-4.7c2.6,0,4.7,2.1,4.7,4.7C46.1,41,44,43.1,41.4,43.1z"/>
			<path id="Path_1_" class="st3" d="M18.8,27.4c-1.9,0-3.6,0.6-5,1.7c-1.4-1-3.1-1.7-5-1.7c-4.6,0-8.3,3.7-8.3,8.3v13.8h6.4V35.6
				c0-1,0.8-1.9,1.9-1.9s1.9,0.8,1.9,1.9v13.9H17V35.6c0-1,0.8-1.9,1.9-1.9c1,0,1.9,0.8,1.9,1.9v13.9h6.3V35.6
				C27.1,31.1,23.4,27.4,18.8,27.4z"/>
			<path id="Path_2_" class="st3" d="M18.8,0.5c-1.9,0-3.6,0.6-5,1.7c-1.4-1-3.1-1.7-5-1.7c-4.6,0-8.3,3.7-8.3,8.3v13.8h6.4V8.7
				c0-1,0.8-1.9,1.9-1.9s1.9,0.8,1.9,1.9v13.9H17V8.7c0-1,0.8-1.9,1.9-1.9c1,0,1.9,0.8,1.9,1.9v13.9h6.4V8.8
				C27.1,4.2,23.4,0.5,18.8,0.5z"/>
		</g>
	</g>
</g>
</svg>
