<svg width="24" height="24" viewBox="0 0 24 24" fill="none" xmlns="http://www.w3.org/2000/svg">
<path d="M9.50295 4.25722C9.19922 3.4979 8.46381 3 7.646 3H4.89474C3.8483 3 3 3.84834 3 4.89478C3 13.7895 10.2108 21 19.1055 21C20.1519 21 21 20.1518 21 19.1053L20.9999 16.354C20.9999 15.5362 20.5019 14.8009 19.7426 14.4971L17.1071 13.4429C16.4251 13.1701 15.6485 13.293 15.0842 13.7633L14.4031 14.3307C13.6084 14.9929 12.44 14.94 11.7085 14.2085L9.79136 12.2915C9.05993 11.5601 9.00722 10.3915 9.66943 9.59688L10.2368 8.91597C10.7071 8.35163 10.83 7.57493 10.5572 6.89286L9.50295 4.25722Z" stroke="currentColor" stroke-width="2" stroke-linecap="round" stroke-linejoin="round"/>
</svg>
