<svg width="20" height="20" viewBox="0 0 90 90" fill="none" xmlns="http://www.w3.org/2000/svg">
<path d="M44 85C21.9086 85 4 67.0914 4 45C4 22.9086 21.9086 5 44 5C66.0914 5 84 22.9086 84 45C84 67.0914 66.0914 85 44 85Z" fill="#D90026"/>
<path d="M49.9237 29.9966L45.992 29.5732L48.8954 27.2343L48.1857 23.976L51.1617 25.8874L54.0651 23.5485L53.6417 27.4803L56.1217 29.0731L52.8635 29.7828L51.944 33.396L49.9237 29.9966Z" fill="#FFDB44"/>
<path d="M26 52.125L16.25 57L19.5 47.25L13 40.75H22.75L26 31L30.875 40.75H39L32.5 47.25L35.75 57L26 52.125Z" fill="#FFDB44"/>
<path d="M49.9237 60.0366L45.992 60.46L48.8954 62.7988L48.1857 66.0571L51.1617 64.1457L54.0651 66.4846L53.6417 62.5529L56.1217 60.96L52.8635 60.2503L51.944 56.6372L49.9237 60.0366Z" fill="#FFDB44"/>
<path d="M59.4142 40.5705L55.7681 39.0395L59.2195 37.6295L59.4721 34.3044L61.7765 36.9877L65.2279 35.5777L63.6968 39.2237L65.6171 41.4598L62.292 41.2072L60.3769 44.406L59.4142 40.5705Z" fill="#FFDB44"/>
<path d="M59.4142 51.7299L55.7681 53.261L59.2195 54.6709L59.4721 57.996L61.7765 55.3128L65.2279 56.7227L63.6968 53.0767L65.6171 50.8406L62.292 51.0932L60.3769 47.8944L59.4142 51.7299Z" fill="#FFDB44"/>
</svg>
