<svg width="80" height="80" viewBox="0 0 80 80" fill="none" xmlns="http://www.w3.org/2000/svg">
<path d="M47.5 3.25H32.5C17.875 6.25 6.25 17.75 3.25 32.5V47.5C6.25 62.25 17.875 73.75 32.5 76.75H47.5C62.25 73.75 73.75 62.125 76.75 47.5V32.5C73.75 17.75 62.125 6.25 47.5 3.25Z" fill="white"/>
<path d="M76.4737 48.75C77.1575 45.8836 77.502 42.9468 77.5 40C77.5 36.9875 77.145 34.0575 76.4737 31.25H48.75V3.52625C45.8836 2.84247 42.9468 2.49802 40 2.5C36.9875 2.5 34.0575 2.855 31.25 3.52625V31.25H3.52624C2.84246 34.1164 2.49802 37.0532 2.49999 40C2.49999 43.0125 2.85499 45.9425 3.52624 48.75H31.25V76.4737C34.1164 77.1575 37.0532 77.502 40 77.5C43.0125 77.5 45.9425 77.145 48.75 76.4737V48.75H76.4737Z" fill="#CE1124"/>
</svg>
