<svg width="20" height="20" viewBox="0 0 80 80" fill="none" xmlns="http://www.w3.org/2000/svg">
<circle cx="40" cy="40" r="40" fill="#0052B5"/>
<path d="M39.7959 23.7631L36.2678 25.5492L37.4292 22.0064L35.0595 19.6602L38.5965 19.6426L39.9869 15.9798L41.5439 19.6279L44.4913 19.6133L42.1451 21.9829L43.3417 25.514L39.7959 23.7631Z" fill="#FFDB44"/>
<path d="M39.7959 56.9923L36.2678 55.2062L37.4292 58.749L35.0595 61.0952L38.5965 61.1128L39.9869 64.7756L41.5439 61.1275L44.4913 61.1421L42.1451 58.7725L43.3417 55.2414L39.7959 56.9923Z" fill="#FFDB44"/>
<path d="M56.1839 40.3225L53.7032 37.243L57.41 37.6422L59.2121 34.8364L59.9649 38.2923L63.8368 38.8907L60.5922 41.1723L61.2196 44.0522L58.4137 42.2501L55.2087 44.1549L56.1839 40.3225Z" fill="#FFDB44"/>
<path d="M51.8055 29.3205L47.925 28.5593L51.0194 26.4798L50.5936 23.1724L53.3935 25.3335L56.7424 23.3002L55.7268 27.1345L58.0601 28.9354L54.7527 29.3613L53.5249 32.8816L51.8055 29.3205Z" fill="#FFDB44"/>
<path d="M51.8575 51.5038L53.5432 47.9266L54.8041 51.4352L58.1154 51.8299L55.336 54.0173L56.4899 57.7614L53.0198 55.8402L50.7036 57.6631L51.0982 54.3518L47.9843 52.3015L51.8575 51.5038Z" fill="#FFDB44"/>
<path d="M56.1839 40.3225L53.7032 37.243L57.41 37.6422L59.2121 34.8364L59.9649 38.2923L63.8368 38.8907L60.5922 41.1723L61.2196 44.0522L58.4137 42.2501L55.2087 44.1549L56.1839 40.3225Z" fill="#FFDB44"/>
<path d="M23.9251 40.3225L26.4059 37.243L22.699 37.6422L20.8969 34.8364L20.1441 38.2923L16.2722 38.8907L19.5168 41.1723L18.8895 44.0522L21.6953 42.2501L24.9003 44.1549L23.9251 40.3225Z" fill="#FFDB44"/>
<path d="M28.3035 29.3205L32.184 28.5593L29.0896 26.4798L29.5155 23.1724L26.7155 25.3335L23.3666 23.3002L24.3822 27.1345L22.049 28.9354L25.3563 29.3613L26.5842 32.8816L28.3035 29.3205Z" fill="#FFDB44"/>
<path d="M28.2516 51.5038L26.5658 47.9266L25.3049 51.4352L21.9936 51.8299L24.7731 54.0173L23.6191 57.7614L27.0893 55.8402L29.4054 57.6631L29.0108 54.3518L32.1247 52.3015L28.2516 51.5038Z" fill="#FFDB44"/>
<path d="M23.9251 40.3225L26.4059 37.243L22.699 37.6422L20.8969 34.8364L20.1441 38.2923L16.2722 38.8907L19.5168 41.1723L18.8895 44.0522L21.6953 42.2501L24.9003 44.1549L23.9251 40.3225Z" fill="#FFDB44"/>
</svg>
