<svg width="24" height="24" viewBox="0 0 24 24" fill="none" xmlns="http://www.w3.org/2000/svg">
<path d="M20 6.33723V5.59998C20 5.03992 19.9996 4.75993 19.8906 4.54602C19.7948 4.35786 19.6425 4.20487 19.4544 4.10899C19.2405 4 18.9597 4 18.3996 4H5.59961C5.03956 4 4.75981 4 4.5459 4.10899C4.35774 4.20487 4.20487 4.35786 4.10899 4.54602C4 4.75993 4 5.03992 4 5.59998V6.33723C4 6.58182 4 6.70417 4.02763 6.81925C4.05213 6.92129 4.09263 7.0188 4.14746 7.10828C4.20928 7.20916 4.29574 7.29562 4.46859 7.46846L4.46875 7.46863L9.53149 12.5314C9.70444 12.7043 9.79068 12.7908 9.85252 12.8917C9.90735 12.9812 9.94816 13.0787 9.97266 13.1808C10 13.2947 10 13.4156 10 13.6553V13.6627V18.4111C10 19.2683 10 19.697 10.1805 19.9551C10.3382 20.1805 10.5814 20.3311 10.8535 20.3713C11.1651 20.4173 11.5487 20.2256 12.3154 19.8423L13.1154 19.4423C13.4365 19.2817 13.5968 19.2014 13.7141 19.0817C13.8178 18.9758 13.897 18.8481 13.9453 18.708C14 18.5495 14 18.3701 14 18.0111V13.6627C14 13.4181 14 13.2959 14.0276 13.1808C14.0521 13.0787 14.0926 12.9812 14.1475 12.8917C14.2093 12.7908 14.2957 12.7044 14.4685 12.5316L14.4688 12.5314L19.5315 7.46863C19.7044 7.29568 19.7907 7.20919 19.8525 7.10828C19.9073 7.0188 19.9482 6.92129 19.9727 6.81925C20 6.70534 20 6.58431 20 6.34468V6.33723Z" stroke="currentColor" stroke-width="2" stroke-linecap="round" stroke-linejoin="round"/>
</svg>
