<svg width="30" height="30" viewBox="0 0 30 30" fill="none" xmlns="http://www.w3.org/2000/svg">
<g clip-path="url(#clip0_2_2520)">
<path d="M14.2387 9.23168L16.6665 8.87498C17.6105 8.73629 18.3322 7.96141 18.4033 7.00988L18.6652 3.51121C18.6933 3.13585 18.2945 2.87856 17.9641 3.05891L15.746 4.26985C14.9879 4.68371 14.4553 5.41556 14.2947 6.26416L13.8162 8.79135C13.7683 9.04437 13.984 9.26912 14.2387 9.23168Z" fill="#FFE07D"/>
<path d="M17.9642 3.05891L16.9089 3.63498L16.6596 6.96532C16.5884 7.91686 15.8668 8.69168 14.9228 8.83043L13.8332 8.99053C13.8919 9.14878 14.0549 9.25868 14.2388 9.23163L16.6666 8.87488C17.6106 8.73619 18.3323 7.96131 18.4034 7.00977L18.6653 3.51111C18.6934 3.13585 18.2946 2.87856 17.9642 3.05891Z" fill="#FFD064"/>
<path d="M9.86686 18.955L11.4653 18.6187C11.8149 18.6589 12.043 19.0055 11.9416 19.3425L11.5128 20.7674L15.5037 26.3514H18.1574L28.1905 24.3855L22.5049 12.9789C21.6578 11.2795 20.6577 9.66068 19.5169 8.14267C17.778 5.53427 14.2567 4.8241 11.6427 6.55457L9.94923 7.67565C9.24639 8.14093 8.78675 8.89461 8.69478 9.73251L8.54254 11.12C8.48817 11.6158 8.14803 12.0336 7.67358 12.1876L4.61172 13.1808L3.98513 15.6554L4.16722 16.0343C4.71993 17.1843 5.82408 17.9703 7.09171 18.116L8.15373 18.2381C8.19982 18.2434 8.24227 18.2675 8.26816 18.306C8.61763 18.8258 9.24939 19.0849 9.86686 18.955Z" fill="#FFD064"/>
<path d="M22.5049 12.9789C21.6579 11.2795 20.6577 9.66068 19.5169 8.14267C18.0291 5.91101 15.2368 5.0691 12.8241 5.9562C13.9207 6.35682 14.9043 7.09705 15.6014 8.14267C16.7422 9.66068 17.7423 11.2795 18.5894 12.9789L25.0088 25.8577L28.1905 24.3855L22.5049 12.9789Z" fill="#FFC250"/>
<path d="M22.6742 16.383L22.7187 15.7946C22.7859 14.9051 22.4194 14.0378 21.7347 13.466L19.7161 11.7803C19.4747 11.5788 19.1131 11.7869 19.1662 12.0968L19.6362 14.8414C19.6757 15.0721 19.8117 15.275 20.01 15.3992L22.0691 16.6888C22.3216 16.847 22.6518 16.6802 22.6742 16.383Z" fill="#4A80AA"/>
<path d="M21.7347 13.466L19.7161 11.7803C19.4747 11.5788 19.1131 11.7869 19.1662 12.0968L19.3121 12.9486L20.0991 13.6059C20.7838 14.1777 21.1503 15.0449 21.0831 15.9345L21.0732 16.0651L22.0691 16.6888C22.3216 16.847 22.6518 16.6801 22.6742 16.383L22.7187 15.7946C22.7859 14.905 22.4194 14.0378 21.7347 13.466Z" fill="#407093"/>
<path d="M16.388 20.6197C16.6839 20.9167 17.0468 21.1382 17.4461 21.2656C17.5013 21.2832 17.5455 21.3249 17.5661 21.3791L17.7369 21.8268C17.8551 22.1368 18.1723 22.3358 18.4996 22.2818C18.5162 22.2791 18.5327 22.2758 18.5492 22.2719L19.4507 22.0621C19.8145 21.9774 20.0854 22.3935 19.8608 22.6919L18.9299 23.9284C18.4015 24.6303 18.1337 25.4858 18.1574 26.3513H29.1627C29.3462 26.3513 29.4774 26.1728 29.421 25.9983C29.3061 25.6426 29.2197 25.278 29.1634 24.9077L28.6712 21.67C28.4796 20.4099 27.9461 19.2265 27.1289 18.2484L24.9998 15.7002C24.2933 14.8547 23.3174 14.2779 22.236 14.0667L22.1226 14.0446C20.7088 13.7685 19.2458 14.1419 18.1373 15.0618L17.6599 15.4579C16.9697 16.0307 16.6574 16.9411 16.8507 17.8169L17.0084 18.5308L16.0898 19.5422L16.1252 20.3557L16.388 20.6197Z" fill="#407093"/>
<path d="M10.712 13.1504C11.0976 13.1504 11.4103 12.8378 11.4103 12.4521C11.4103 12.0664 11.0976 11.7538 10.712 11.7538C10.3263 11.7538 10.0137 12.0664 10.0137 12.4521C10.0137 12.8378 10.3263 13.1504 10.712 13.1504Z" fill="#707DD3"/>
<path d="M3.69694 15.0555L3.98519 15.6553L4.13669 15.2521C4.23457 14.9916 4.48775 14.8226 4.76581 14.8322L5.48147 14.8569C5.76803 14.8668 5.92033 14.5223 5.72009 14.317L4.61172 13.1807L4.48168 13.2229C3.71919 13.4702 3.34968 14.333 3.69694 15.0555Z" fill="#407093"/>
<path d="M5.72009 14.317L4.61172 13.1807L4.48168 13.2229C4.22718 13.3054 4.01677 13.4568 3.86189 13.6484L4.78786 14.5977C4.85688 14.6685 4.89127 14.7525 4.89886 14.8368L5.48147 14.8569C5.76803 14.8668 5.92033 14.5222 5.72009 14.317Z" fill="#365E7D"/>
<path d="M7.77241 15.9745C8.02533 15.9745 8.23036 15.7695 8.23036 15.5165C8.23036 15.2636 8.02533 15.0586 7.77241 15.0586C7.5195 15.0586 7.31447 15.2636 7.31447 15.5165C7.31447 15.7695 7.5195 15.9745 7.77241 15.9745Z" fill="#FFC250"/>
<path d="M9.54239 15.9745C9.7953 15.9745 10.0003 15.7695 10.0003 15.5165C10.0003 15.2636 9.7953 15.0586 9.54239 15.0586C9.28947 15.0586 9.08444 15.2636 9.08444 15.5165C9.08444 15.7695 9.28947 15.9745 9.54239 15.9745Z" fill="#FFC250"/>
<path d="M8.79809 17.246C9.05101 17.246 9.25604 17.0409 9.25604 16.788C9.25604 16.5351 9.05101 16.3301 8.79809 16.3301C8.54518 16.3301 8.34015 16.5351 8.34015 16.788C8.34015 17.0409 8.54518 17.246 8.79809 17.246Z" fill="#FFC250"/>
<path d="M19.01 19.1798C19.3684 19.1798 19.659 18.8893 19.659 18.5308C19.659 18.1724 19.3684 17.8818 19.01 17.8818C18.6516 17.8818 18.361 18.1724 18.361 18.5308C18.361 18.8893 18.6516 19.1798 19.01 19.1798Z" fill="#95D6A4"/>
<path d="M16.6434 19.5013L16.0897 19.5423L16.0331 19.6047C15.8763 19.7774 15.8608 20.0359 15.9959 20.226L16.1252 20.3558L16.7036 20.3129C16.9277 20.2963 17.096 20.1012 17.0793 19.877C17.0627 19.653 16.8679 19.4852 16.6434 19.5013Z" fill="#E28086"/>
<path d="M16.2495 9.65151L17.3001 9.70282L19.0543 9.47479C19.0543 9.47479 19.8546 9.56882 20.2517 9.16651C20.4899 8.92514 20.6701 8.62229 20.7654 8.27741L21.6992 4.89555C21.7994 4.53274 21.4578 4.20315 21.0988 4.31616L18.6882 5.07506C17.8644 5.33441 17.2003 5.94945 16.8785 6.7509L15.9202 9.13782C15.8242 9.37671 15.9923 9.63896 16.2495 9.65151Z" fill="#FFE07D"/>
<path d="M21.0988 4.31617L19.6849 4.7613C19.6854 4.80502 19.6798 4.85 19.6672 4.89557L18.7334 8.27742C18.5374 8.98723 17.9816 9.51853 17.3001 9.70283L18.7004 9.77123C19.6535 9.81779 20.5113 9.19716 20.7653 8.27742L21.6991 4.89557C21.7993 4.53275 21.4578 4.20311 21.0988 4.31617Z" fill="#FFD064"/>
<path d="M19.7798 14.9067L19.8931 14.9289C20.9745 15.1401 21.9504 15.7168 22.6569 16.5624L24.786 19.1106C25.6033 20.0887 26.1367 21.2721 26.3284 22.5322L26.8206 25.7699C26.8504 25.9656 26.8893 26.1595 26.9354 26.3515H29.1628C29.3463 26.3515 29.4775 26.173 29.4211 25.9985C29.3062 25.6428 29.2198 25.2782 29.1635 24.9079L28.6712 21.6702C28.4796 20.4101 27.9462 19.2267 27.1289 18.2486L24.9998 15.7004C24.2933 14.8548 23.3174 14.2781 22.236 14.0669L22.1227 14.0448C20.8304 13.7925 19.4972 14.083 18.431 14.8372C18.8769 14.7972 19.3308 14.819 19.7798 14.9067Z" fill="#365E7D"/>
<path d="M24.0773 16.2973C24.0773 16.2973 24.6635 15.7126 24.6922 15.3657C24.7351 14.8473 24.6313 14.32 24.3817 13.8474L23.1532 11.5219C23.0064 11.244 22.5929 11.2994 22.5244 11.6062L21.9184 14.3241C21.8674 14.5525 21.9163 14.7917 22.0527 14.9819L23.0496 16.3718L24.0773 16.2973Z" fill="#4A80AA"/>
<path d="M24.3817 13.8475L23.1532 11.522C23.0064 11.2441 22.5929 11.2996 22.5244 11.6064L22.3025 12.6014L22.9927 13.9079C23.3984 14.6759 23.4176 15.5882 23.0496 16.372L23.4687 16.9563C23.6423 17.1985 24.0112 17.1693 24.1446 16.9029L24.4089 16.3753C24.8085 15.5777 24.7983 14.6363 24.3817 13.8475Z" fill="#407093"/>
<path d="M24.8909 30C26.6501 30 28.0762 28.5739 28.0762 26.8148C28.0762 25.0556 26.6501 23.6295 24.8909 23.6295C23.1318 23.6295 21.7057 25.0556 21.7057 26.8148C21.7057 28.5739 23.1318 30 24.8909 30Z" fill="#B3E59F"/>
<path d="M26.7587 24.2352C27.1394 24.76 27.3644 25.405 27.3644 26.103C27.3644 27.8621 25.9383 29.2882 24.1792 29.2882C23.4812 29.2882 22.8362 29.0632 22.3114 28.6825C22.8902 29.4806 23.8297 30 24.8909 30C26.6501 30 28.0762 28.5739 28.0762 26.8148C28.0762 25.7535 27.5568 24.8141 26.7587 24.2352Z" fill="#95D6A4"/>
<path d="M24.533 28.0129C24.4251 28.0129 24.3216 27.97 24.2453 27.8937L23.4343 27.0827C23.2753 26.9238 23.2753 26.6661 23.4343 26.5072C23.5931 26.3483 23.8509 26.3483 24.0097 26.5072L24.533 27.0305L25.8691 25.6943C26.0279 25.5355 26.2857 25.5355 26.4445 25.6943C26.6035 25.8533 26.6035 26.1109 26.4445 26.2699L24.8207 27.8937C24.7444 27.97 24.6409 28.0129 24.533 28.0129Z" fill="#F2FBFF"/>
<path d="M15.781 25.4157C15.911 24.9771 15.5823 24.5369 15.1249 24.5369C14.6751 24.5369 14.3476 24.1105 14.4637 23.676L14.5074 23.5121C14.6235 23.0776 14.296 22.6512 13.8463 22.6512H13.7546C13.3173 22.6512 12.9922 22.2466 13.0862 21.8196L13.1348 21.5991C13.2289 21.172 12.9038 20.7675 12.4665 20.7675H11.5128L10.7588 23.2733C10.5388 24.0044 10.427 24.7637 10.427 25.5272V26.0802C10.427 26.23 10.5485 26.3515 10.6983 26.3515H15.5037L15.781 25.4157Z" fill="#F9F6F6"/>
<path d="M22.7034 19.9415L24.0875 20.1321C24.3101 20.1626 24.5155 20.0071 24.5462 19.7844C24.5769 19.5618 24.4212 19.3564 24.1985 19.3258L22.8144 19.1352C22.0451 19.0292 21.2726 19.1587 20.5785 19.5103L19.7243 19.9473C19.5551 20.034 19.4511 20.2127 19.4596 20.4028C19.468 20.5928 19.5874 20.7617 19.7639 20.8331L20.7132 21.2166C21.1248 21.3789 21.4906 21.6453 21.7711 21.9872L22.2441 22.5637C22.3246 22.6618 22.4413 22.7126 22.559 22.7126C22.6498 22.7126 22.7412 22.6823 22.8169 22.6202C22.9907 22.4777 23.016 22.2213 22.8734 22.0475L22.4004 21.471C22.2134 21.2431 21.9975 21.0409 21.76 20.8692C22.0831 20.9409 22.3939 21.0648 22.6793 21.2383L23.893 21.9757C23.9591 22.0159 24.032 22.0349 24.104 22.0349C24.2415 22.0349 24.3756 21.9653 24.4522 21.8392C24.5689 21.6471 24.5078 21.3968 24.3157 21.2801L23.102 20.5427C22.6266 20.2539 22.0961 20.0729 21.5472 20.0091C21.9219 19.9116 22.3131 19.8878 22.7034 19.9415Z" fill="#4A80AA"/>
</g>
<defs>
<clipPath id="clip0_2_2520">
<rect width="27" height="27" fill="white" transform="translate(3 3)"/>
</clipPath>
</defs>
</svg>
