<svg width="30" height="30" viewBox="0 0 30 30" fill="none" xmlns="http://www.w3.org/2000/svg">
<rect width="30" height="30" fill="#FCEED5"/>
<g clip-path="url(#clip0_2_2507)">
<path d="M27 11.9462C27.0004 12.3526 26.9783 12.7588 26.9338 13.1627C26.4 18.211 22.531 23.52 15 25.9655C7.48137 23.5324 3.59999 18.24 3.0662 13.1627C3.02157 12.7588 2.99947 12.3526 2.99999 11.9462C2.99999 7.9324 5.44965 4.44826 8.99999 4.44826C10.1563 4.44602 11.299 4.69744 12.3476 5.18481L18.2979 4.91998C19.1641 4.60594 20.0786 4.44628 21 4.44826C24.5503 4.44826 27 7.9324 27 11.9462Z" fill="#DF4D60"/>
<path d="M27 11.9462C27.0004 12.3526 26.9783 12.7588 26.9338 13.1627C25.4524 16.9696 20.669 19.7586 15 19.7586C9.33103 19.7586 4.54758 16.9696 3.0662 13.1627C3.02157 12.7588 2.99947 12.3526 2.99999 11.9462C2.99999 7.9324 5.44965 4.44826 8.99999 4.44826C10.1563 4.44602 11.299 4.69744 12.3476 5.18481L18.2979 4.91998C19.1641 4.60594 20.0786 4.44628 21 4.44826C24.5503 4.44826 27 7.9324 27 11.9462Z" fill="#FF5364"/>
<path d="M24.2069 19.7834C22.4725 21.9914 20.2312 23.7487 17.6731 24.9061C17.4248 25.0261 17.1724 25.142 16.9159 25.2455C16.3076 25.5103 15.6662 25.7503 15 25.9655C14.7186 25.8744 14.4414 25.7793 14.1724 25.6799V21.4137C13.1374 20.2806 12.5492 18.8101 12.5172 17.2758C12.5399 15.8138 12.9146 14.3788 13.6096 13.0924C13.6565 12.9907 13.659 12.8742 13.6167 12.7707C13.5743 12.6671 13.4908 12.5858 13.3862 12.5461C12.1823 12.1299 10.9192 11.9105 9.64551 11.8965C7.66344 11.2344 7.52689 9.25235 7.55585 8.4827C7.56166 8.29948 7.68836 8.14236 7.8662 8.09787L10.2662 7.50201C10.6661 7.40056 11.014 7.15431 11.2428 6.81098L12.2152 5.35442C12.2557 5.29514 12.2999 5.23847 12.3476 5.18477C12.553 4.94613 12.8232 4.77221 13.1255 4.68408C14.2788 4.32083 15.4728 4.1026 16.68 4.03442C17.3255 4.06978 17.9202 4.39532 18.2979 4.91994C19.1596 6.10314 19.6088 7.53659 19.5765 8.99994C19.5765 10.0593 19.1214 10.6675 18.4965 10.953V10.9613L18.6165 11.793L18.7076 12.4303C18.7301 12.5942 18.8494 12.7283 19.0096 12.7696C19.705 13.0065 20.3278 13.4183 20.8179 13.9655C21.5834 14.7268 23.1269 17.2137 24.2069 19.7834Z" fill="#35495E"/>
<path d="M18.6166 11.793C18.2892 11.919 17.9411 11.9822 17.5903 11.9792C17.1383 11.9762 16.6907 11.8892 16.2703 11.7227C15.7996 11.5321 15.4906 11.076 15.4883 10.5682V7.75852C15.4883 7.52999 15.6735 7.34473 15.9021 7.34473C16.1306 7.34473 16.3159 7.52999 16.3159 7.75852V10.5682C16.3157 10.7377 16.419 10.8903 16.5766 10.953C17.1554 11.2022 17.8087 11.2156 18.3972 10.9902C18.4289 10.9763 18.4623 10.9665 18.4966 10.9613L18.6166 11.793Z" fill="#2C3E50"/>
<path d="M21.6 20.7185C21.5253 20.9343 21.2914 21.0503 21.0745 20.9792C20.2964 20.6752 19.418 20.7792 18.7324 21.2565C17.9249 21.8918 17.4622 22.8692 17.4828 23.8965C17.4763 24.2425 17.5411 24.5862 17.6731 24.9061C17.4248 25.0261 17.1724 25.142 16.9159 25.2454C16.7386 24.818 16.6499 24.3591 16.6552 23.8965C16.6361 22.6039 17.2262 21.3776 18.2483 20.5861C19.151 19.9541 20.3071 19.8071 21.3393 20.193C21.555 20.2677 21.6711 20.5016 21.6 20.7185Z" fill="#2C3E50"/>
<path d="M9.2069 7.76685V8.99995C9.2069 9.22848 9.02164 9.41374 8.79311 9.41374H7.6138C7.56354 9.1061 7.54414 8.79421 7.55587 8.48271C7.56167 8.29948 7.68838 8.14237 7.86621 8.09788L9.2069 7.76685Z" fill="#3F5C6C"/>
</g>
<defs>
<clipPath id="clip0_2_2507">
<rect width="24" height="24" fill="white" transform="translate(3 3)"/>
</clipPath>
</defs>
</svg>
