<svg width="115" height="40" viewBox="0 0 115 40" fill="none" xmlns="http://www.w3.org/2000/svg">
<g clip-path="url(#clip0_2_610)">
<path d="M32.569 32.6316C33.2112 32.6316 33.7428 32.8491 34.1691 33.2787C34.606 33.7083 34.8166 34.244 34.8166 34.8805C34.8166 35.5169 34.606 36.042 34.1691 36.4823C33.7428 36.9119 33.2112 37.1293 32.569 37.1293H31.1847V39.4737H30.0688V32.6369H32.569V32.6316ZM32.569 36.0686C33.227 36.0686 33.7007 35.57 33.7007 34.8752C33.7007 34.1803 33.227 33.6818 32.569 33.6818H31.1847V36.0633H32.569V36.0686Z" fill="#103559"/>
<path d="M36.496 37.5163C36.6574 38.2014 37.2862 38.5782 38.1375 38.5782C38.7218 38.5782 39.1614 38.3874 39.4619 38.0204L40.3745 38.4901C39.8737 39.1459 39.1225 39.4737 38.132 39.4737C37.3029 39.4737 36.624 39.2486 36.112 38.8082C35.6001 38.358 35.3441 37.7904 35.3441 37.1053C35.3441 36.4202 35.6001 35.8722 36.1009 35.422C36.6017 34.962 37.2583 34.7369 38.0485 34.7369C38.7942 34.7369 39.4118 34.9718 39.8904 35.4317C40.3745 35.8917 40.6193 36.4594 40.6193 37.1151C40.6193 37.213 40.6082 37.35 40.5804 37.5212H36.5016L36.496 37.5163ZM39.5009 36.7236C39.3451 35.9945 38.7608 35.6128 38.0374 35.6128C37.2194 35.6128 36.6462 36.0385 36.4904 36.7236H39.5009Z" fill="#103559"/>
<path d="M43.7844 35.5461H42.5736V37.897C42.5736 38.5247 42.9825 38.514 43.7844 38.4768V39.4289C42.17 39.6257 41.5168 39.1842 41.5168 37.9024V35.5514H40.6193V34.5302H41.5168V33.4717L42.5736 33.1579V34.5302H43.7844V35.5514V35.5461Z" fill="#103559"/>
<path d="M46.3868 36.6816C47.1001 36.8334 48.0244 37.1224 48.0044 38.0874C48.0044 38.5185 47.8285 38.8614 47.4869 39.1063C47.1453 39.3513 46.7183 39.4737 46.2009 39.4737C45.2866 39.4737 44.6084 39.0769 44.312 38.4205L45.171 37.9356C45.3268 38.3667 45.6684 38.5871 46.1959 38.5871C46.7233 38.5871 46.9846 38.4156 46.9846 38.0825C46.9846 37.7935 46.5977 37.6221 46.1054 37.5045C45.4122 37.3331 44.4778 37.0637 44.4979 36.1134C44.4979 35.697 44.6536 35.3639 44.9801 35.1141C45.3017 34.8593 45.7136 34.7369 46.1908 34.7369C46.9594 34.7369 47.5773 35.0896 47.9039 35.6774L47.0599 36.1378C46.9042 35.795 46.6078 35.6235 46.1908 35.6235C45.8141 35.6235 45.5177 35.7852 45.5177 36.1036C45.5177 36.4024 45.9045 36.5542 46.3868 36.6914V36.6816Z" fill="#103559"/>
<path d="M54.3349 33.6377C53.5038 33.57 53.0996 33.8876 53.0996 34.5852V34.6789H54.3349V35.6785H53.0996V39.4737H51.9668V35.6785H51.1698V34.6789H51.9668V34.5852C51.9668 33.2733 52.7865 32.5548 54.3349 32.6381V33.6377Z" fill="#103559"/>
<path d="M55.6331 38.7886C55.1229 38.3287 54.8624 37.7708 54.8624 37.1053C54.8624 36.4398 55.1229 35.8819 55.6331 35.422C56.1432 34.962 56.7728 34.7369 57.5 34.7369C58.2273 34.7369 58.8568 34.962 59.367 35.422C59.8772 35.8819 60.1377 36.4398 60.1377 37.1053C60.1377 37.7708 59.8772 38.3287 59.367 38.7886C58.8568 39.2486 58.2381 39.4737 57.5 39.4737C56.7619 39.4737 56.1432 39.2486 55.6331 38.7886ZM57.5 38.5293C57.9396 38.5293 58.3087 38.3923 58.6072 38.1231C58.9057 37.854 59.0576 37.5115 59.0576 37.1053C59.0576 36.6991 58.9057 36.3566 58.6072 36.0875C58.3087 35.8183 57.9396 35.6813 57.5 35.6813C57.0604 35.6813 56.6914 35.8183 56.3929 36.0875C56.0944 36.3566 55.9424 36.6991 55.9424 37.1053C55.9424 37.5115 56.0944 37.854 56.3929 38.1231C56.6914 38.3923 57.0604 38.5293 57.5 38.5293Z" fill="#103559"/>
<path d="M61.7519 35.6013C62.0249 35.025 62.5492 34.7369 63.3028 34.7369V35.8238C62.8932 35.7934 62.5273 35.8895 62.2161 36.1018C61.9048 36.3091 61.7519 36.6528 61.7519 37.128V39.4737H60.6652V34.8178H61.7519V35.6013Z" fill="#103559"/>
<path d="M71.2156 37.5203C71.2156 38.0777 71.0285 38.5448 70.6493 38.9163C70.2701 39.2879 69.81 39.4737 69.2639 39.4737H66.4679V32.6316H69.0566C69.5875 32.6316 70.0426 32.8174 70.4066 33.1783C70.7808 33.5393 70.9628 33.9905 70.9628 34.5266C70.9628 35.1211 70.7403 35.5829 70.3004 35.9226C70.8667 36.2358 71.2105 36.8037 71.2105 37.515L71.2156 37.5203ZM67.5398 33.6879V35.4873H69.0566C69.5319 35.4873 69.896 35.0945 69.896 34.5903C69.896 34.086 69.5319 33.6932 69.0566 33.6932H67.5398V33.6879ZM69.2639 38.4174C69.7594 38.4174 70.1488 37.9981 70.1488 37.4619C70.1488 36.9258 69.7594 36.5065 69.2639 36.5065H67.5398V38.4227H69.2639V38.4174Z" fill="#103559"/>
<path d="M73.4213 37.5163C73.5825 38.2014 74.2106 38.5782 75.0611 38.5782C75.6448 38.5782 76.0839 38.3874 76.3841 38.0204L77.2957 38.4901C76.7954 39.1459 76.045 39.4737 75.0556 39.4737C74.2273 39.4737 73.5491 39.2486 73.0377 38.8082C72.5263 38.358 72.2706 37.7904 72.2706 37.1053C72.2706 36.4202 72.5263 35.8722 73.0266 35.422C73.5269 34.962 74.1828 34.7369 74.9722 34.7369C75.717 34.7369 76.3341 34.9718 76.8177 35.4317C77.3013 35.8917 77.5459 36.4594 77.5459 37.1151C77.5459 37.213 77.5347 37.35 77.507 37.5212H73.4324L73.4213 37.5163ZM76.423 36.7236C76.2674 35.9945 75.6837 35.6128 74.9611 35.6128C74.1439 35.6128 73.5714 36.0385 73.4157 36.7236H76.4286H76.423Z" fill="#103559"/>
<path d="M79.6206 36.6816C80.334 36.8334 81.2583 37.1224 81.2382 38.0874C81.2382 38.5185 81.0624 38.8614 80.7208 39.1063C80.3792 39.3513 79.9522 39.4737 79.4348 39.4737C78.5205 39.4737 77.8423 39.0769 77.5459 38.4205L78.4049 37.9356C78.5607 38.3667 78.9023 38.5871 79.4297 38.5871C79.9572 38.5871 80.2184 38.4156 80.2184 38.0825C80.2184 37.7935 79.8316 37.6221 79.3393 37.5045C78.6461 37.3331 77.7117 37.0637 77.7318 36.1134C77.7318 35.697 77.8875 35.3639 78.214 35.1141C78.5355 34.8593 78.9475 34.7369 79.4247 34.7369C80.1933 34.7369 80.8112 35.0896 81.1378 35.6774L80.2938 36.1378C80.1381 35.795 79.8417 35.6235 79.4247 35.6235C79.0479 35.6235 78.7516 35.7852 78.7516 36.1036C78.7516 36.4024 79.1384 36.5542 79.6206 36.6914V36.6816Z" fill="#103559"/>
<path d="M84.9313 35.5461H83.7225V37.897C83.7225 38.5247 84.1307 38.514 84.9313 38.4768V39.4289C83.3195 39.6257 82.6674 39.1842 82.6674 37.9024V35.5514H81.7661V34.5302H82.6674V33.4717L83.7225 33.1579V34.5302H84.9313V35.5514V35.5461Z" fill="#103559"/>
<path d="M24.9886 3.21454C24.8505 1.85328 24.3036 1.57892 23.2416 1.57892H18.7175C17.7246 1.57892 17.4856 1.74776 17.1086 2.83993L13.7156 13.8724L10.3226 2.83993C9.94555 1.74776 9.7066 1.57892 8.71364 1.57892H4.18428C3.12229 1.57892 2.57537 1.85328 2.43731 3.21454L0.0372224 24.8733C-0.0636662 25.6542 0.00536284 25.9655 0.690344 26.0657L5.86752 26.8149C6.65339 26.9152 6.82862 26.7463 6.92951 26.166L8.06052 16.0198L10.4925 25.5223C10.7314 26.3031 11.0394 26.6144 11.8306 26.6144H15.6006C16.3865 26.6144 16.6998 26.3084 16.9387 25.5223L19.3388 16.0198L20.5017 26.166C20.6026 26.7463 20.7778 26.9152 21.5637 26.8149L26.7409 26.0657C27.4258 25.9655 27.4949 25.6594 27.394 24.8733L24.9886 3.21454Z" fill="#103559"/>
<path d="M37.4541 7.36841C31.6439 7.36841 28.4862 11.3508 28.4862 16.8421C28.4862 22.3334 31.6439 26.3158 37.4541 26.3158C43.2643 26.3158 46.422 22.3334 46.422 16.8421C46.422 11.3508 43.2643 7.36841 37.4541 7.36841ZM37.4541 20.1193C36.0594 20.1193 35.3121 18.8125 35.3121 16.8369C35.3121 14.8613 36.0594 13.5546 37.4541 13.5546C38.8488 13.5546 39.5961 14.8613 39.5961 16.8369C39.5961 18.8125 38.8488 20.1193 37.4541 20.1193Z" fill="#103559"/>
<path d="M59.4518 7.37893C58.2608 7.37893 49.349 7.61557 48.7693 8.43068C48.5321 8.70414 48.5321 9.07751 48.5321 9.71908L48.8062 24.5173C48.8378 25.874 49.1487 26.3158 50.3345 26.3158H54.4874C55.6784 26.3158 56.0157 25.874 56.0157 24.5173V14.2995C56.5269 14.1312 56.6956 14.0628 57.2753 14.026C58.0553 13.9945 58.4294 14.2311 58.6719 14.8727C58.8405 15.5511 58.8774 16.5713 58.8774 17.9596L58.8458 24.512C58.8458 25.8688 59.22 26.3105 60.411 26.3105H64.664C65.8551 26.3105 66.1607 25.8688 66.1924 24.512L66.4664 15.4827C66.498 13.274 66.0237 11.2389 64.9012 9.74537C63.7101 8.25188 61.9394 7.36841 59.4571 7.36841L59.4518 7.37893Z" fill="#103559"/>
<path d="M75.414 9.47369H71.1391C69.9695 9.47369 69.6331 9.87707 69.6331 11.2339V24.5242C69.6331 25.8758 69.9695 26.3158 71.1391 26.3158H75.4813C76.6509 26.3158 77.0184 25.8758 77.0184 24.5242L76.9511 11.2339C76.9511 9.91374 76.5836 9.47369 75.414 9.47369Z" fill="#103559"/>
<path d="M73.5895 0.526306C71.0576 0.526306 69.6331 2.08541 69.6331 4.21052C69.6331 6.33563 71.0576 7.89473 73.5895 7.89473C76.1214 7.89473 77.5459 6.33563 77.5459 4.21052C77.5459 2.08541 76.1214 0.526306 73.5895 0.526306Z" fill="#103559"/>
<path d="M91.947 7.91966H89.3174V3.34403C89.3174 1.98868 88.9693 1.57892 87.7643 1.57892H83.6834C82.473 1.57892 82.0928 2.0202 82.0928 3.34403V7.91966H80.0202C78.8794 7.91966 78.601 8.12454 78.601 9.1752V12.8735C78.601 13.9242 78.8794 14.1291 80.0202 14.1291H82.0928V20.5696C82.0928 24.9089 84.4064 26.8421 88.7658 26.8421C90.0458 26.8421 91.3258 26.7423 92.5361 26.5006C93.0556 26.4008 93.1949 26.2642 93.1949 25.7546L93.0235 20.5644C93.0235 20.1231 92.7825 19.955 92.3326 20.0548C91.9524 20.1546 91.5721 20.2229 91.0526 20.2229C90.0511 20.2229 89.3228 19.8814 89.3228 18.4263V14.1186H91.9524C93.0931 14.1186 93.3716 13.9137 93.3716 12.863V9.16469C93.3716 8.11403 93.0931 7.90915 91.9524 7.90915L91.947 7.91966Z" fill="#103559"/>
<path d="M103.395 7.36841C97.5843 7.36841 94.4266 11.3508 94.4266 16.8421C94.4266 22.3334 97.5843 26.3158 103.395 26.3158C109.205 26.3158 112.362 22.3334 112.362 16.8421C112.362 11.3508 109.205 7.36841 103.395 7.36841ZM103.395 20.1193C102 20.1193 101.253 18.8125 101.253 16.8369C101.253 14.8613 102 13.5546 103.395 13.5546C104.789 13.5546 105.537 14.8613 105.537 16.8369C105.537 18.8125 104.789 20.1193 103.395 20.1193Z" fill="#103559"/>
<path d="M114.03 8.11043C113.421 7.67068 112.422 7.92476 111.792 8.67722C111.161 9.42969 111.145 10.3971 111.75 10.8369C112.359 11.2766 113.358 11.0226 113.988 10.2701C114.619 9.51764 114.634 8.55018 114.03 8.11043Z" fill="#103559"/>
<path d="M99.6851 6.83118C100.402 6.72115 100.871 5.81473 100.733 4.80352C100.594 3.79232 99.9075 3.0588 99.191 3.16882C98.4745 3.27885 98.0051 4.18527 98.1434 5.19648C98.2818 6.20769 98.9686 6.94121 99.6851 6.83118Z" fill="#103559"/>
<path d="M108.969 7.7609C109.96 8.26129 111.461 7.3149 112.315 5.64513C113.169 3.97535 113.06 2.21311 112.063 1.71273C111.072 1.21234 109.571 2.15872 108.717 3.8285C107.863 5.49827 107.972 7.26051 108.969 7.7609Z" fill="#103559"/>
<path d="M103.837 6.30726C104.836 6.4344 105.805 5.12591 105.998 3.38834C106.191 1.64546 105.538 0.135674 104.534 0.0085342C103.535 -0.118606 102.566 1.18988 102.373 2.92745C102.18 4.67033 102.833 6.18012 103.837 6.30726Z" fill="#103559"/>
</g>
<defs>
<clipPath id="clip0_2_610">
<rect width="115" height="40" fill="white"/>
</clipPath>
</defs>
</svg>
