<svg width="90" height="90" viewBox="0 0 90 90" fill="none" xmlns="http://www.w3.org/2000/svg">
<mask id="mask0_234_1365" style="mask-type:luminance" maskUnits="userSpaceOnUse" x="0" y="0" width="90" height="90">
<path d="M45 90C69.8528 90 90 69.8528 90 45C90 20.1472 69.8528 0 45 0C20.1472 0 0 20.1472 0 45C0 69.8528 20.1472 90 45 90Z" fill="white"/>
</mask>
<g mask="url(#mask0_234_1365)">
<path d="M0 0L1.40625 3.86719L0 7.91016V11.9531L5.625 21.4453L0 30.9375V36.5625L5.625 45L0 53.4375V59.0625L5.625 68.5547L0 78.0469V90L3.86719 88.5938L7.91016 90H11.9531L21.4453 84.375L30.9375 90H36.5625L45 84.375L53.4375 90H59.0625L68.5547 84.375L78.0469 90H90L88.5938 86.1328L90 82.0898V78.0469L84.375 68.5547L90 59.0625V53.4375L84.375 45L90 36.5625V30.9375L84.375 21.4453L90 11.9531V0L86.1328 1.40625L82.0898 0H78.0469L68.5547 5.625L59.0625 0H53.4375L45 5.625L36.5625 0H30.9375L21.4453 5.625L11.9531 0H0Z" fill="#EEEEEE"/>
<path d="M59.0625 0V18.9844L78.0469 0H59.0625ZM90 11.9531L71.0156 30.9375H90V11.9531ZM0 30.9375H18.9844L0 11.9531V30.9375ZM11.9531 0L30.9375 18.9844V0H11.9531ZM30.9375 90V71.0156L11.9531 90H30.9375ZM0 78.0469L18.9844 59.0625H0V78.0469ZM90 59.0625H71.0156L90 78.0469V59.0625ZM78.0469 90L59.0625 71.0156V90H78.0469Z" fill="#0052B4"/>
<path d="M0 0V7.91016L23.0273 30.9375H30.9375L0 0ZM36.5625 0V36.5625H0V53.4375H36.5625V90H53.4375V53.4375H90V36.5625H53.4375V0H36.5625ZM82.0898 0L59.0625 23.0273V30.9375L90 0H82.0898ZM30.9375 59.0625L0 90H7.91016L30.9375 66.9727V59.0625ZM59.0625 59.0625L90 90V82.0898L66.9727 59.0625H59.0625Z" fill="#D80027"/>
</g>
</svg>
